<svg id="Layer_1" data-name="Layer 1" xmlns="http://www.w3.org/2000/svg" viewBox="0 0 160.32 49.82"><defs><style>.cls-1{fill:#fff;}</style></defs><path class="cls-1" d="M-215.27,209.42h3.86L-198.08,247h-3.85Z" transform="translate(215.27 -197.18)"/><path class="cls-1" d="M-186.38,247l-7.81-28.33h6.8l4.9,19.83,5.46-19.83h5.23l5.47,19.84,4.92-19.84h6.8L-162.42,247h-7.37l-4.63-16.8L-179,247Z" transform="translate(215.27 -197.18)"/><path class="cls-1" d="M-148.1,218.67h6.48V247h-6.48Z" transform="translate(215.27 -197.18)"/><path class="cls-1" d="M-117.3,218.67h6.47V247h-4.86l-10.92-15.38V247h-6.48V218.67h4.86l10.93,15.38Z" transform="translate(215.27 -197.18)"/><path class="cls-1" d="M-88.78,247a14.24,14.24,0,0,1-10.54-4.23,14.34,14.34,0,0,1-4.19-10.5,14.34,14.34,0,0,1,4.19-10.5,14.24,14.24,0,0,1,10.54-4.23,14.57,14.57,0,0,1,7,1.76,13.36,13.36,0,0,1,5.09,4.8l-5.58,3.23a6.35,6.35,0,0,0-2.67-2.56,8.24,8.24,0,0,0-3.89-.92,8,8,0,0,0-6,2.31A8.42,8.42,0,0,0-97,232.27a8.41,8.41,0,0,0,2.24,6.11,8,8,0,0,0,6,2.31,8.24,8.24,0,0,0,3.91-.93,6.28,6.28,0,0,0,2.65-2.55l5.58,3.24a13,13,0,0,1-5,4.79A14.64,14.64,0,0,1-88.78,247Z" transform="translate(215.27 -197.18)"/><path class="cls-1" d="M-54.95,209.42-68.29,247h-3.85l13.34-37.58Z" transform="translate(215.27 -197.18)"/><path class="cls-1" d="M-181,209.21h6.33v1.23h-7.64v-13h7.55v1.23H-181v4.62h5.77v1.23H-181Z" transform="translate(215.27 -197.18)"/><path class="cls-1" d="M-162.47,210.44l-4.8-13h1.41l4.06,11.29,4.06-11.29h1.42l-4.81,13Z" transform="translate(215.27 -197.18)"/><path class="cls-1" d="M-146.82,209.21h6.33v1.23h-7.64v-13h7.55v1.23h-6.24v4.62H-141v1.23h-5.77Z" transform="translate(215.27 -197.18)"/><path class="cls-1" d="M-123.36,197.4H-122v13h-1.12l-7.26-10.62v10.62h-1.31v-13h1.14l7.24,10.59Z" transform="translate(215.27 -197.18)"/><path class="cls-1" d="M-104.36,197.4v1.23h-4v11.81h-1.3V198.63h-4V197.4Z" transform="translate(215.27 -197.18)"/><path class="cls-1" d="M-92.26,210.66a5.36,5.36,0,0,1-3.06-.85,4.43,4.43,0,0,1-1.78-2.33l1.12-.65a3.51,3.51,0,0,0,1.3,1.89,4.14,4.14,0,0,0,2.44.68,3.57,3.57,0,0,0,2.27-.65,2.06,2.06,0,0,0,.81-1.7,1.77,1.77,0,0,0-.75-1.55,10.44,10.44,0,0,0-2.46-1.08A13.76,13.76,0,0,1-95,203.34a2.85,2.85,0,0,1-1.49-2.59,3.22,3.22,0,0,1,1.16-2.61,4.31,4.31,0,0,1,2.85-1,4.43,4.43,0,0,1,2.64.79,4.78,4.78,0,0,1,1.66,2l-1.1.62a3.22,3.22,0,0,0-3.2-2.17,3,3,0,0,0-2,.6,2,2,0,0,0-.75,1.66,1.67,1.67,0,0,0,.68,1.45,8.56,8.56,0,0,0,2.21,1l1,.34c.2.07.5.18.89.34a5.2,5.2,0,0,1,.87.41l.68.48a2.14,2.14,0,0,1,.57.62,3.42,3.42,0,0,1,.32.74,3.19,3.19,0,0,1,.14.94,3.27,3.27,0,0,1-1.21,2.66A4.89,4.89,0,0,1-92.26,210.66Z" transform="translate(215.27 -197.18)"/></svg>